<svg width="60" height="60" viewBox="0 0 60 60" fill="none" xmlns="http://www.w3.org/2000/svg">
<path d="M30 57.5C45.1878 57.5 57.5 45.1878 57.5 30C57.5 14.8122 45.1878 2.5 30 2.5C14.8122 2.5 2.5 14.8122 2.5 30C2.5 45.1878 14.8122 57.5 30 57.5Z" fill="#5576A5"/>
<path d="M32.3938 46H25.75V30H22.75V24.5H25.75V21.2145C25.75 16.7392 27.6722 14 32.9435 14H37.25V19.5H34.5892C32.5367 19.5 32.4017 20.295 32.4017 21.7257L32.393 24.5H37.3625L36.781 30H32.25V46H32.3938Z" fill="white"/>
<path opacity="0.1" d="M10.5544 49.4455C15.5309 54.422 22.4059 57.5 29.9999 57.5C45.1877 57.5 57.4999 45.1878 57.4999 30C57.4999 22.406 54.4219 15.531 49.4454 10.5545L10.5544 49.4455Z" fill="#231F20"/>
</svg>
