<svg width="55" height="55" viewBox="0 0 55 55" fill="none" xmlns="http://www.w3.org/2000/svg">
<g clip-path="url(#clip0_40_178)">
<path d="M27.5 55C42.6878 55 55 42.6878 55 27.5C55 12.3122 42.6878 0 27.5 0C12.3122 0 0 12.3122 0 27.5C0 42.6878 12.3122 55 27.5 55Z" fill="#E83829"/>
<path opacity="0.2" d="M27.4999 0.572917C39.7112 0.572917 50.0592 8.46143 53.7866 19.4122C50.3323 8.17204 39.8721 0 27.4999 0C15.1276 0 4.66756 8.17204 1.21313 19.4119C4.94059 8.46143 15.2885 0.572917 27.4999 0.572917Z" fill="white"/>
<path d="M49.2709 25.2083H43.5417V19.4792H38.9584V25.2083H33.2292V29.7917H38.9584V35.5208H43.5417V29.7917H49.2709V25.2083Z" fill="white"/>
<path opacity="0.1" d="M27.5 54.4271C16.6258 54.4271 7.2475 48.2428 2.69188 39.1554C2.13172 38.038 1.64447 36.8767 1.23633 35.6777C1.60486 36.8769 2.05288 38.0401 2.57425 39.1615C6.9397 48.5504 16.4477 55 27.5 55C38.2155 55 47.4866 48.9136 52.0217 39.9814C52.7229 38.6004 53.3108 37.1513 53.7734 35.6461C53.4787 36.512 53.1426 37.3583 52.7676 38.1829C48.3999 47.786 38.7458 54.4271 27.5 54.4271Z" fill="#010101"/>
<path d="M29.56 25.2083H18.3333V29.7917H24.7861C23.837 32.4534 21.3169 34.375 18.3333 34.375C14.5422 34.375 11.4583 31.2911 11.4583 27.5C11.4583 23.7089 14.5422 20.625 18.3333 20.625C20.2289 20.625 21.9476 21.396 23.1925 22.6408L26.4317 19.4017C24.3568 17.3268 21.4922 16.0417 18.3333 16.0417C12.0156 16.0417 6.875 21.1823 6.875 27.5C6.875 33.8178 12.0156 38.9583 18.3333 38.9583C24.6511 38.9583 29.7917 33.8178 29.7917 27.5C29.7917 26.7153 29.7111 25.9491 29.56 25.2083Z" fill="white"/>
<path d="M49.2709 25.2083V29.7917H43.5418V35.5208H38.9584V29.7917H33.2293V26.1992L26.4318 19.4017L23.1926 22.6408C21.9477 21.396 20.229 20.625 18.3334 20.625C14.5423 20.625 11.4584 23.7089 11.4584 27.5C11.4584 31.2911 14.5423 34.375 18.3334 34.375C21.3171 34.375 23.8371 32.4534 24.7862 29.7917H18.3334V25.2083H29.5601C29.7112 25.9491 29.7918 26.7153 29.7918 27.5C29.7918 33.8177 24.6512 38.9583 18.3334 38.9583C15.1982 38.9583 12.3568 37.6877 10.2859 35.6401L10.2862 35.646L29.5372 54.8972C42.6951 53.9301 53.2703 43.7271 54.7941 30.7315L49.2709 25.2083ZM43.5418 25.2083H49.2709L43.5418 19.4792V25.2083Z" fill="url(#paint0_linear_40_178)"/>
<path d="M27.5 55C42.6878 55 55 42.6878 55 27.5C55 12.3122 42.6878 0 27.5 0C12.3122 0 0 12.3122 0 27.5C0 42.6878 12.3122 55 27.5 55Z" fill="url(#paint1_linear_40_178)"/>
</g>
<defs>
<linearGradient id="paint0_linear_40_178" x1="17.7332" y1="18.3819" x2="46.6066" y2="47.2553" gradientUnits="userSpaceOnUse">
<stop stop-color="#010101" stop-opacity="0.1"/>
<stop offset="1" stop-color="#010101" stop-opacity="0"/>
</linearGradient>
<linearGradient id="paint1_linear_40_178" x1="2.57052" y1="15.8752" x2="52.4295" y2="39.1248" gradientUnits="userSpaceOnUse">
<stop stop-color="white" stop-opacity="0.2"/>
<stop offset="1" stop-color="white" stop-opacity="0"/>
</linearGradient>
<clipPath id="clip0_40_178">
<rect width="55" height="55" fill="white"/>
</clipPath>
</defs>
</svg>
