<svg width="60" height="60" viewBox="0 0 60 60" fill="none" xmlns="http://www.w3.org/2000/svg">
<path d="M30 57.5C45.1878 57.5 57.5 45.1878 57.5 30C57.5 14.8122 45.1878 2.5 30 2.5C14.8122 2.5 2.5 14.8122 2.5 30C2.5 45.1878 14.8122 57.5 30 57.5Z" fill="#0173B2"/>
<path d="M20.2473 14.739C18.1713 14.739 16.8093 16.1012 16.8093 17.8927C16.8093 19.645 18.1253 21.0182 20.1621 21.0182H20.1903C22.3068 21.0182 23.6283 19.645 23.6283 17.8927C23.5891 16.101 22.3236 14.739 20.2473 14.739ZM38.1476 23.1207C34.9156 23.1207 33.4966 24.888 32.6923 26.1325V26.1892H32.6356C32.6456 26.1737 32.6823 26.1482 32.6923 26.1325V23.547H26.6118C26.6916 25.2597 26.6118 41.7882 26.6118 41.7882H32.6923V31.588C32.6923 31.0425 32.7306 30.5005 32.8913 30.1105C33.3298 29.0205 34.3123 27.8942 35.9883 27.8942C38.1838 27.8942 39.0853 29.5605 39.0853 32.0142V41.7882H45.1373V31.3322C45.1373 25.7257 42.1391 23.1207 38.1476 23.1207ZM17.1788 23.547V41.7882H23.2593V23.547H17.1788Z" fill="white"/>
<path opacity="0.1" d="M10.5544 49.4455C15.5309 54.422 22.4059 57.5 29.9999 57.5C45.1877 57.5 57.4999 45.1878 57.4999 30C57.4999 22.406 54.4219 15.531 49.4454 10.5545L10.5544 49.4455Z" fill="#231F20"/>
</svg>
