<?xml version="1.0" standalone="no"?>
<!DOCTYPE svg PUBLIC "-//W3C//DTD SVG 20010904//EN"
 "http://www.w3.org/TR/2001/REC-SVG-20010904/DTD/svg10.dtd">
<svg version="1.0" xmlns="http://www.w3.org/2000/svg"
 width="512.000000pt" height="511.000000pt" viewBox="0 0 512.000000 511.000000"
 preserveAspectRatio="xMidYMid meet">

<g transform="translate(0.000000,511.000000) scale(0.100000,-0.100000)"
fill="gray" stroke="none">
<path d="M1104 5085 c-263 -46 -506 -173 -703 -367 -179 -177 -292 -362 -356
-582 -40 -141 -47 -212 -42 -430 3 -165 8 -216 26 -281 34 -127 88 -256 147
-356 l56 -91 -18 -122 c-24 -169 -25 -479 0 -641 119 -787 591 -1439 1290
-1780 237 -116 407 -172 656 -217 172 -30 498 -36 686 -11 l141 19 34 -24 c43
-30 192 -106 261 -132 29 -12 98 -32 153 -45 91 -23 120 -25 318 -25 240 0
305 9 455 62 398 140 731 491 847 893 104 358 55 757 -131 1066 l-56 91 18
122 c25 168 25 478 0 641 -38 253 -109 479 -221 710 -235 480 -591 836 -1070
1071 -236 115 -406 171 -655 216 -172 30 -509 36 -691 11 l-136 -19 -34 24
c-43 30 -192 105 -261 132 -138 54 -244 72 -443 76 -135 2 -214 -1 -271 -11z
m1826 -1111 c369 -58 549 -185 567 -403 9 -109 -45 -255 -123 -335 -95 -95
-209 -111 -354 -50 -185 79 -210 86 -320 91 -170 9 -273 -24 -293 -94 -21 -71
46 -130 250 -217 502 -215 707 -373 824 -632 90 -199 108 -487 43 -711 -87
-302 -318 -506 -672 -596 -121 -30 -471 -32 -602 -3 -306 67 -553 222 -642
404 -31 62 -33 74 -33 167 0 96 2 105 37 176 71 144 180 223 308 224 87 0 165
-39 285 -143 130 -112 231 -150 371 -139 76 6 161 36 190 68 11 13 19 41 22
78 8 113 -42 168 -238 263 -384 185 -455 222 -531 274 -162 109 -228 182 -299
329 -127 262 -117 575 27 835 44 79 184 221 265 268 140 82 331 144 498 162
106 11 295 4 420 -16z"/>
<path d="M2590 3694 c-294 -22 -511 -136 -598 -314 -81 -165 -82 -363 -2 -525
63 -129 159 -206 409 -327 438 -211 446 -215 519 -283 131 -121 176 -226 170
-390 -5 -130 -30 -194 -105 -275 -108 -117 -286 -178 -488 -167 -177 9 -317
68 -470 197 -52 44 -99 80 -105 80 -18 0 -50 -63 -50 -100 0 -70 161 -187 335
-244 133 -43 391 -60 531 -35 347 61 526 269 526 608 -1 187 -48 326 -151 443
-74 83 -266 194 -552 318 -200 87 -267 127 -339 202 -148 155 -156 382 -19
532 105 115 248 166 466 166 156 0 269 -29 489 -126 12 -6 44 64 44 96 0 26
-61 66 -135 89 -118 37 -353 64 -475 55z"/>
</g>
</svg>
