<?xml version="1.0" standalone="no"?>
<!DOCTYPE svg PUBLIC "-//W3C//DTD SVG 20010904//EN"
 "http://www.w3.org/TR/2001/REC-SVG-20010904/DTD/svg10.dtd">
<svg version="1.0" xmlns="http://www.w3.org/2000/svg"
 width="512.000000pt" height="512.000000pt" viewBox="0 0 512.000000 512.000000"
 preserveAspectRatio="xMidYMid meet">

<g transform="translate(0.000000,512.000000) scale(0.100000,-0.100000)"
fill="#000000" stroke="none">
<path fill = '#ffc107' d="M1665 4842 c-120 -42 -205 -117 -258 -230 l-32 -67 -3 -222 -3 -223
-548 0 c-348 0 -569 -4 -606 -11 -98 -18 -167 -76 -200 -168 -13 -38 -15 -173
-15 -1030 0 -1086 -3 -1037 61 -1114 17 -21 48 -47 70 -57 l39 -20 0 -606 c0
-393 4 -620 11 -647 16 -65 69 -130 130 -161 l53 -26 2196 0 2196 0 53 26 c61
31 114 96 130 161 7 27 11 254 11 647 l0 606 39 20 c22 10 53 36 70 57 64 77
61 28 61 1114 0 857 -2 992 -15 1030 -33 92 -102 150 -200 168 -37 7 -258 11
-606 11 l-548 0 -3 223 -3 223 -37 75 c-46 93 -112 158 -206 202 l-67 32 -860
2 c-796 2 -864 1 -910 -15z m1765 -173 c60 -27 98 -64 126 -124 23 -47 24 -61
24 -247 l0 -198 -85 0 -85 0 0 185 c0 184 0 186 -25 210 l-24 25 -801 0 -801
0 -24 -25 c-25 -24 -25 -26 -25 -210 l0 -185 -85 0 -85 0 0 198 c0 177 3 202
21 242 27 60 64 98 124 126 l50 24 825 0 c808 0 826 -1 870 -21z m-190 -444
l0 -125 -680 0 -680 0 0 125 0 125 680 0 680 0 0 -125z m1642 -306 c72 -19 68
42 68 -1029 0 -1071 4 -1010 -68 -1030 -39 -11 -1921 -270 -1959 -270 -22 0
-23 4 -23 79 0 126 -40 207 -129 259 -45 26 -50 27 -211 27 -161 0 -166 -1
-211 -27 -89 -52 -129 -133 -129 -259 0 -75 -1 -79 -22 -79 -39 0 -1921 259
-1960 270 -72 20 -68 -41 -68 1030 0 1062 -3 1010 63 1029 47 13 4601 14 4649
0z m-2178 -2155 l26 -27 0 -278 c0 -295 -3 -318 -47 -338 -31 -14 -215 -14
-246 0 -44 20 -47 43 -47 338 l0 278 26 27 c26 25 31 26 144 26 113 0 118 -1
144 -26z m-1419 -224 c484 -66 892 -123 907 -126 l27 -5 3 -142 c3 -157 14
-192 73 -252 63 -62 93 -70 265 -70 172 0 202 8 265 70 59 60 70 95 73 252 l3
142 27 5 c15 3 423 60 907 126 484 66 895 123 913 126 l32 6 0 -587 c0 -602
-1 -613 -39 -642 -23 -18 -4339 -18 -4362 0 -38 29 -39 40 -39 642 l0 587 33
-6 c17 -3 428 -60 912 -126z"/>
</g>
</svg>
